<mxfile host="app.diagrams.net" modified="2023-12-08T16:32:31.596Z" agent="Mozilla/5.0 (Windows NT 10.0; Win64; x64) AppleWebKit/537.36 (KHTML, like Gecko) Chrome/119.0.0.0 Safari/537.36" etag="Wft9RkZ_MzwS1K_LednB" version="22.1.7" type="github">
  <diagram id="C5RBs43oDa-KdzZeNtuy" name="Page-1">
    <mxGraphModel dx="819" dy="476" grid="1" gridSize="10" guides="1" tooltips="1" connect="1" arrows="1" fold="1" page="1" pageScale="1" pageWidth="827" pageHeight="1169" math="0" shadow="0">
      <root>
        <mxCell id="WIyWlLk6GJQsqaUBKTNV-0" />
        <mxCell id="WIyWlLk6GJQsqaUBKTNV-1" parent="WIyWlLk6GJQsqaUBKTNV-0" />
        <mxCell id="_b6vlirzOlypI_W9VNAc-0" value="«Abstract»&lt;br&gt;USER" style="rounded=0;whiteSpace=wrap;html=1;" vertex="1" parent="WIyWlLk6GJQsqaUBKTNV-1">
          <mxGeometry x="160" y="60" width="130" height="50" as="geometry" />
        </mxCell>
        <mxCell id="_b6vlirzOlypI_W9VNAc-5" value="" style="endArrow=block;html=1;rounded=0;endFill=0;dashed=1;exitX=0.5;exitY=0;exitDx=0;exitDy=0;" edge="1" parent="WIyWlLk6GJQsqaUBKTNV-1" source="_b6vlirzOlypI_W9VNAc-6">
          <mxGeometry width="50" height="50" relative="1" as="geometry">
            <mxPoint x="225" y="160" as="sourcePoint" />
            <mxPoint x="224.8" y="110" as="targetPoint" />
          </mxGeometry>
        </mxCell>
        <mxCell id="_b6vlirzOlypI_W9VNAc-6" value="MODERATOR" style="rounded=0;whiteSpace=wrap;html=1;" vertex="1" parent="WIyWlLk6GJQsqaUBKTNV-1">
          <mxGeometry x="70" y="180" width="100" height="50" as="geometry" />
        </mxCell>
        <mxCell id="_b6vlirzOlypI_W9VNAc-7" value="" style="endArrow=block;html=1;rounded=0;endFill=0;dashed=1;exitX=0.5;exitY=0;exitDx=0;exitDy=0;entryX=0.582;entryY=1.004;entryDx=0;entryDy=0;entryPerimeter=0;" edge="1" parent="WIyWlLk6GJQsqaUBKTNV-1" source="_b6vlirzOlypI_W9VNAc-8" target="_b6vlirzOlypI_W9VNAc-0">
          <mxGeometry width="50" height="50" relative="1" as="geometry">
            <mxPoint x="345" y="170" as="sourcePoint" />
            <mxPoint x="344.8" y="120" as="targetPoint" />
          </mxGeometry>
        </mxCell>
        <mxCell id="_b6vlirzOlypI_W9VNAc-8" value="UNREGISTERED&lt;br&gt;USER" style="rounded=0;whiteSpace=wrap;html=1;" vertex="1" parent="WIyWlLk6GJQsqaUBKTNV-1">
          <mxGeometry x="190" y="190" width="110" height="50" as="geometry" />
        </mxCell>
        <mxCell id="_b6vlirzOlypI_W9VNAc-9" value="" style="endArrow=block;html=1;rounded=0;endFill=0;dashed=1;exitX=0.5;exitY=0;exitDx=0;exitDy=0;entryX=0.75;entryY=1;entryDx=0;entryDy=0;" edge="1" parent="WIyWlLk6GJQsqaUBKTNV-1" source="_b6vlirzOlypI_W9VNAc-10" target="_b6vlirzOlypI_W9VNAc-0">
          <mxGeometry width="50" height="50" relative="1" as="geometry">
            <mxPoint x="485" y="160" as="sourcePoint" />
            <mxPoint x="376" y="100" as="targetPoint" />
          </mxGeometry>
        </mxCell>
        <mxCell id="_b6vlirzOlypI_W9VNAc-10" value="REGISTERED&lt;br&gt;USERr" style="rounded=0;whiteSpace=wrap;html=1;" vertex="1" parent="WIyWlLk6GJQsqaUBKTNV-1">
          <mxGeometry x="320" y="190" width="110" height="50" as="geometry" />
        </mxCell>
      </root>
    </mxGraphModel>
  </diagram>
</mxfile>
